<svg width="142" height="96" viewBox="0 0 142 96" fill="none" xmlns="http://www.w3.org/2000/svg">
<path d="M100 47C100 58.1728 91.3691 67 81 67C70.6309 67 62 58.1728 62 47C62 35.8272 70.6309 27 81 27C91.3691 27 100 35.8272 100 47Z" stroke="#D8A523" stroke-width="6"/>
<line x1="81.5" y1="18.5" x2="120.5" y2="2.5" stroke="#D8A523" stroke-width="5" stroke-linecap="round"/>
<line x1="78.5" y1="93" x2="117.5" y2="72" stroke="#D8A523" stroke-width="5"/>
<line x1="109.5" y1="45.5" x2="124.5" y2="84.5" stroke="#D8A523" stroke-width="5" stroke-linecap="round"/>
<line x1="35" y1="45.5" x2="55" y2="84.5" stroke="#D8A523" stroke-width="5"/>
<line x1="2.5" y1="-2.5" x2="17.9546" y2="36.4749" transform="matrix(0.694348 -0.71964 0.694348 0.71964 100.735 30.6605)" stroke="#D8A523" stroke-width="5" stroke-linecap="round"/>
<line x1="2.5" y1="-2.5" x2="17.9546" y2="36.4749" transform="matrix(-0.694348 -0.71964 -0.694348 0.71964 61.6899 29.7791)" stroke="#D8A523" stroke-width="5" stroke-linecap="round"/>
<line y1="-2.5" x2="20.4546" y2="36.4749" transform="matrix(-0.694348 0.71964 -0.694348 -0.71964 61.2648 64.6401)" stroke="#D8A523" stroke-width="5"/>
<line x1="2.5" y1="-2.5" x2="17.9546" y2="36.4749" transform="matrix(0.694348 0.71964 0.694348 -0.71964 100.31 65.5215)" stroke="#D8A523" stroke-width="5" stroke-linecap="round"/>
<path d="M100 47C100 58.1728 91.3691 67 81 67C70.6309 67 62 58.1728 62 47C62 35.8272 70.6309 27 81 27C91.3691 27 100 35.8272 100 47Z" stroke="#D8A523" stroke-width="6"/>
<line x1="78.5" y1="93" x2="117.5" y2="72" stroke="#D8A523" stroke-width="5"/>
<line x1="35" y1="45.5" x2="55" y2="84.5" stroke="#D8A523" stroke-width="5"/>
<line y1="-2.5" x2="20.4546" y2="36.4749" transform="matrix(-0.694348 0.71964 -0.694348 -0.71964 61.2648 64.6401)" stroke="#D8A523" stroke-width="5"/>
<path d="M8.97401 87.9104C12.7991 91.0092 17.987 92.75 23.3966 92.75L67.1034 92.75C72.5129 92.75 77.7009 91.0092 81.526 87.9104C85.3511 84.8117 87.5 80.609 87.5 76.2267C87.5 71.8445 85.3511 67.6417 81.526 64.543C77.7009 61.4443 72.513 59.7035 67.1035 59.7035C67.1035 55.0082 64.801 50.5053 60.7027 47.1852C56.6044 43.8652 51.0459 42 45.25 42C39.4541 42 33.8956 43.8652 29.7973 47.1852C25.699 50.5053 23.3966 55.0082 23.3966 59.7035C17.9871 59.7035 12.7991 61.4443 8.97401 64.543C5.14892 67.6417 3 71.8445 3 76.2267C3 80.609 5.14892 84.8117 8.97401 87.9104Z" fill="#EBEBEB" stroke="#969696" stroke-width="6" stroke-linecap="round" stroke-linejoin="round"/>
</svg>
