<svg width="37" height="37" viewBox="0 0 37 37" fill="none" xmlns="http://www.w3.org/2000/svg">
<g clip-path="url(#clip0_37_47)">
<path fill-rule="evenodd" clip-rule="evenodd" d="M18.4935 0.924988C14.129 0.927252 9.90764 2.47307 6.5842 5.28603C3.26076 8.099 1.05198 11.9957 0.352808 16.2793C-0.346362 20.5629 0.509663 24.9542 2.76783 28.6678C5.02601 32.3815 8.53906 35.1754 12.6788 36.55C13.5921 36.7195 13.9361 36.1534 13.9361 35.6721C13.9361 35.1908 13.9179 33.7954 13.9118 32.2698C8.7973 33.3746 7.71657 30.1115 7.71657 30.1115C6.88242 27.9926 5.67686 27.4356 5.67686 27.4356C4.00857 26.3035 5.80169 26.3247 5.80169 26.3247C7.6496 26.4549 8.62074 28.2105 8.62074 28.2105C10.2586 31.0045 12.9224 30.1962 13.9696 29.724C14.134 28.5405 14.612 27.7353 15.1387 27.2782C11.0532 26.8181 6.76064 25.2501 6.76064 18.2456C6.73532 16.429 7.41328 14.6722 8.65423 13.3388C8.46548 12.8787 7.83529 11.0201 8.83383 8.49556C8.83383 8.49556 10.3773 8.00518 13.8905 10.3693C16.9038 9.54991 20.0832 9.54991 23.0965 10.3693C26.6067 8.00518 28.1471 8.49556 28.1471 8.49556C29.1487 11.014 28.5185 12.8726 28.3298 13.3388C29.5746 14.6725 30.254 16.4323 30.2264 18.2516C30.2264 25.2713 25.9247 26.8181 21.8331 27.2691C22.4907 27.8382 23.0783 28.9491 23.0783 30.6564C23.0783 33.1022 23.057 35.0697 23.057 35.6721C23.057 36.1595 23.3888 36.7285 24.3204 36.55C28.4606 35.1752 31.974 32.3808 34.2321 28.6665C36.4903 24.9522 37.3459 20.5603 36.6459 16.2763C35.9459 11.9923 33.736 8.09558 30.4115 5.2831C27.087 2.47062 22.8646 0.925817 18.4996 0.924988H18.4935Z" fill="#1c1c1c"/>
<path d="M7.07077 27.1722C7.0312 27.263 6.88507 27.2903 6.76634 27.2267C6.64761 27.1631 6.55933 27.0451 6.60195 26.9513C6.64457 26.8574 6.78766 26.8332 6.90639 26.8968C7.02511 26.9603 7.11644 27.0814 7.07077 27.1722Z" fill="#1c1c1c"/>
<path d="M7.81669 27.9986C7.75364 28.0302 7.68152 28.039 7.61265 28.0235C7.54379 28.0081 7.48248 27.9693 7.4392 27.9138C7.32047 27.7867 7.2961 27.6111 7.38743 27.5324C7.47876 27.4537 7.64317 27.4901 7.7619 27.6172C7.88062 27.7443 7.90802 27.9199 7.81669 27.9986Z" fill="#1c1c1c"/>
<path d="M8.54115 29.0489C8.42851 29.1276 8.2367 29.0489 8.13015 28.8915C8.10069 28.8633 8.07726 28.8295 8.06125 28.792C8.04525 28.7546 8.03699 28.7143 8.03699 28.6736C8.03699 28.6329 8.04525 28.5926 8.06125 28.5552C8.07726 28.5177 8.10069 28.4839 8.13015 28.4557C8.24279 28.38 8.4346 28.4557 8.54115 28.61C8.6477 28.7644 8.65074 28.9702 8.54115 29.0489V29.0489Z" fill="#1c1c1c"/>
<path d="M9.52454 30.066C9.42407 30.178 9.22011 30.1478 9.05267 29.9964C8.88523 29.8451 8.84564 29.6392 8.94611 29.5303C9.04657 29.4213 9.25054 29.4516 9.42407 29.5999C9.59759 29.7482 9.63109 29.9571 9.52454 30.066V30.066Z" fill="#1c1c1c"/>
<path d="M10.9035 30.6594C10.8578 30.8016 10.6508 30.8652 10.4438 30.8047C10.2368 30.7441 10.0998 30.5746 10.1394 30.4293C10.179 30.284 10.389 30.2174 10.5991 30.284C10.8091 30.3506 10.9431 30.511 10.9035 30.6594Z" fill="#1c1c1c"/>
<path d="M12.4076 30.7623C12.4076 30.9106 12.2371 31.0377 12.0179 31.0408C11.7988 31.0438 11.6191 30.9227 11.6191 30.7744C11.6191 30.6261 11.7896 30.4989 12.0088 30.4959C12.228 30.4929 12.4076 30.6109 12.4076 30.7623Z" fill="#1c1c1c"/>
<path d="M13.8078 30.5292C13.8352 30.6775 13.683 30.8319 13.4638 30.8682C13.2446 30.9046 13.0528 30.8168 13.0254 30.6715C12.998 30.5262 13.1563 30.3688 13.3694 30.3294C13.5825 30.2901 13.7804 30.3809 13.8078 30.5292Z" fill="#1c1c1c"/>
</g>
<defs>
<clipPath id="clip0_37_47">
<rect width="37" height="37" rx="6" fill="white"/>
</clipPath>
</defs>
</svg>
