<svg width="34" height="35" viewBox="0 0 34 35" fill="none" xmlns="http://www.w3.org/2000/svg">
<g clip-path="url(#clip0_37_70)">
<path d="M0 4.66913C0 3.54298 0.382894 2.61393 1.14865 1.88197C1.9144 1.14998 2.90992 0.783997 4.13514 0.783997C5.33849 0.783997 6.31209 1.14433 7.05598 1.86508C7.82174 2.60832 8.20463 3.57677 8.20463 4.77048C8.20463 5.85156 7.8327 6.75244 7.0888 7.47319C6.32305 8.21643 5.3166 8.58805 4.0695 8.58805H4.03668C2.83332 8.58805 1.85973 8.21643 1.11583 7.47319C0.371932 6.72994 0 5.79525 0 4.66913ZM0.426641 34.2299V11.6624H7.71236V34.2299H0.426641ZM11.749 34.2299H19.0347V21.6286C19.0347 20.8403 19.1223 20.2322 19.2973 19.8043C19.6036 19.0385 20.0685 18.391 20.6921 17.8617C21.3156 17.3324 22.0978 17.0678 23.0386 17.0678C25.4891 17.0678 26.7143 18.7682 26.7143 22.1691V34.2299H34V21.2908C34 17.9574 33.2342 15.4293 31.7027 13.7063C30.1712 11.9833 28.1474 11.1218 25.6313 11.1218C22.8089 11.1218 20.61 12.3718 19.0347 14.8718V14.9394H19.0019L19.0347 14.8718V11.6624H11.749C11.7928 12.3831 11.8147 14.6241 11.8147 18.3853C11.8147 22.1466 11.7928 27.4281 11.749 34.2299Z" fill="#1c1c1c"/>
</g>
<defs>
<clipPath id="clip0_37_70">
<rect width="34" height="35" fill="white"/>
</clipPath>
</defs>
</svg>
