<?xml version="1.0" encoding="utf-8"?>
<svg viewBox="0 0 102 113" width="102" height="113" fill="none" xmlns="http://www.w3.org/2000/svg">
  <line y1="84.59" x2="42.042" y2="90.208" stroke="#66A6B4" stroke-width="4" x1="17.283" transform="matrix(0.5, -0.866025, 0.866025, 0.5, -60.858501, 69.387962)" style="stroke-linecap: round;"/>
  <line y1="82.595" x2="77.451" y2="87.546" stroke="#66A6B4" stroke-width="4" x1="51.543" transform="matrix(0.5, -0.866025, 0.866025, 0.5, -41.424717, 98.391273)" style="stroke-linecap: round;"/>
  <line y1="72.175" x2="66.447" y2="77.129" stroke-width="4" x1="41.88" transform="matrix(0.5, -0.866025, 0.866025, 0.5, -37.568779, 84.232956)" stroke="#66A6B4" style="stroke-linecap: round;"/>
  <line y1="64.484" x2="40.912" y2="69.485" stroke="#66A6B4" stroke-width="4" x1="17.085" transform="matrix(0.5, -0.866025, 0.866025, 0.5, -43.511028, 58.605675)" style="stroke-linecap: round;"/>
  <path d="M10.431 58.4568C14.7088 62.1661 20.5107 64.25 26.5603 64.25L75.4397 64.25C81.4893 64.25 87.2912 62.1661 91.569 58.4568C95.8468 54.7475 98.25 49.7167 98.25 44.4709C98.25 39.2252 95.8468 34.1943 91.569 30.485C87.2912 26.7757 81.4893 24.6919 75.4397 24.6919C75.4397 19.0714 72.8648 13.6812 68.2814 9.70695C63.6981 5.73271 57.4818 3.5 51 3.5C44.5182 3.5 38.3019 5.73271 33.7186 9.70695C29.1352 13.6812 26.5603 19.0714 26.5603 24.6919C20.5107 24.6919 14.7088 26.7757 10.431 30.485C6.15323 34.1943 3.75 39.2252 3.75 44.4709C3.75 49.7167 6.15323 54.7475 10.431 58.4568Z" fill="#CCCCCC" stroke="#969696" stroke-width="6" stroke-linecap="round" stroke-linejoin="round"/>
</svg>