<?xml version="1.0" encoding="utf-8"?>
<svg viewBox="-0.17 -3.467 136.443 99.556" width="136.443" height="99.556" fill="none" xmlns="http://www.w3.org/2000/svg">
  <path d="M 106.439 44.891 C 106.439 56.692 97.098 66.016 85.876 66.016 C 74.654 66.016 65.313 56.692 65.313 44.891 C 65.313 33.089 74.654 23.766 85.876 23.766 C 97.098 23.766 106.439 33.089 106.439 44.891 Z" stroke="#D8A523" stroke-width="6" style=""/>
  <line x1="86.918" y1="14.508" x2="87.029" y2="3.228" stroke="#D8A523" stroke-width="5" stroke-linecap="round" style="" transform="matrix(-1, 0, 0, -1, 173.947006, 17.736)"/>
  <line x1="116.077" y1="46.998" x2="128.767" y2="46.781" stroke="#D8A523" stroke-width="5" stroke-linecap="round" style=""/>
  <line x1="36.091" y1="43.306" x2="57.737" y2="84.5" stroke="#D8A523" stroke-width="5" style=""/>
  <line x1="108.204" y1="20.303" x2="120.298" y2="20.389" stroke="#D8A523" stroke-width="5" stroke-linecap="round" style="" transform="matrix(0.703053, -0.711137, 0.711137, 0.703053, 19.457668, 87.289818)"/>
  <line x1="53.616" y1="19.712" x2="64.972" y2="19.594" stroke="#D8A523" stroke-width="5" stroke-linecap="round" style="" transform="matrix(-0.703053, -0.711137, 0.711137, -0.703053, 87.00486, 75.636276)"/>
  <line y1="37.556" x2="54.759" y2="79.213" stroke="#D8A523" stroke-width="5" style="" x1="33.372" transform="matrix(-0.703053, 0.711137, -0.711137, -0.703053, 116.565285, 68.095284)"/>
  <line x1="104.051" y1="72.73" x2="115.283" y2="72.647" stroke="#D8A523" stroke-width="5" stroke-linecap="round" style="" transform="matrix(0.703053, 0.711137, -0.711137, 0.703053, 84.256752, -56.403667)"/>
  <path d="M 106.439 44.891 C 106.439 56.692 97.098 66.016 85.876 66.016 C 74.654 66.016 65.313 56.692 65.313 44.891 C 65.313 33.089 74.654 23.766 85.876 23.766 C 97.098 23.766 106.439 33.089 106.439 44.891 Z" stroke="#D8A523" stroke-width="6" style=""/>
  <line x1="36.091" y1="43.306" x2="57.737" y2="84.5" stroke="#D8A523" stroke-width="5" style=""/>
  <line y1="37.556" x2="54.759" y2="79.213" stroke="#D8A523" stroke-width="5" style="" x1="33.372" transform="matrix(-0.703053, 0.711137, -0.711137, -0.703053, 116.565285, 68.095284)"/>
  <path d="M 9.326 85.968 C 13.274 89.389 18.629 91.311 24.212 91.311 L 69.325 91.311 C 74.909 91.311 80.264 89.389 84.212 85.968 C 88.16 82.547 90.378 77.908 90.378 73.07 C 90.378 68.232 88.16 63.592 84.212 60.171 C 80.264 56.75 74.909 54.828 69.325 54.828 C 69.325 49.645 66.949 44.674 62.719 41.009 C 58.488 37.343 52.751 35.284 46.769 35.284 C 40.786 35.284 35.049 37.343 30.819 41.009 C 26.589 44.674 24.212 49.645 24.212 54.828 C 18.629 54.828 13.274 56.75 9.326 60.171 C 5.378 63.592 3.16 68.232 3.16 73.07 C 3.16 77.908 5.378 82.547 9.326 85.968 Z" fill="#EBEBEB" stroke="#969696" stroke-width="6" stroke-linecap="round" stroke-linejoin="round" style=""/>
</svg>